<?xml version="1.0" encoding="UTF-8" standalone="no"?>
<!-- Created with Inkscape (http://www.inkscape.org/) -->

<svg
   width="114.13284mm"
   height="39.481586mm"
   viewBox="0 0 114.13284 39.481586"
   version="1.1"
   id="svg1200"
   inkscape:version="1.2.2 (732a01da63, 2022-12-09)"
   sodipodi:docname="conicet.svg"
   xmlns:inkscape="http://www.inkscape.org/namespaces/inkscape"
   xmlns:sodipodi="http://sodipodi.sourceforge.net/DTD/sodipodi-0.dtd"
   xmlns="http://www.w3.org/2000/svg"
   xmlns:svg="http://www.w3.org/2000/svg">
  <sodipodi:namedview
     id="namedview1202"
     pagecolor="#ffffff"
     bordercolor="#666666"
     borderopacity="1.0"
     inkscape:showpageshadow="2"
     inkscape:pageopacity="0.0"
     inkscape:pagecheckerboard="0"
     inkscape:deskcolor="#d1d1d1"
     inkscape:document-units="mm"
     showgrid="false"
     inkscape:zoom="0.5946522"
     inkscape:cx="-340.53519"
     inkscape:cy="-36.155588"
     inkscape:window-width="1920"
     inkscape:window-height="991"
     inkscape:window-x="-9"
     inkscape:window-y="-9"
     inkscape:window-maximized="1"
     inkscape:current-layer="layer1" />
  <defs
     id="defs1197" />
  <g
     inkscape:label="Capa 1"
     inkscape:groupmode="layer"
     id="layer1"
     transform="translate(-35.510117,-138.43373)">
    <path
       d="m 149.64296,148.57438 -6.15879,9.15635 c -12.00538,-7.35119 -26.68235,-14.0074 -39.92281,-8.93586 -3.53483,1.4545 -4.518727,1.87042 -6.942663,3.52037 -0.03598,0.0215 -0.417689,0.30726 -0.46108,0.33619 -0.02716,0.0219 -2.230261,-1.60972 -2.230261,-1.60972 0,0 0.466725,-0.41628 0.553508,-0.49213 8.787346,-8.14705 19.144546,-14.18131 33.937226,-11.44975 8.39117,1.51553 15.70072,5.25991 21.22487,9.47455"
       style="fill:#000000;fill-opacity:1;fill-rule:nonzero;stroke:none;stroke-width:0.352778"
       id="path198"
       sodipodi:nodetypes="ccccccccc" />
    <path
       d="m 60.04065,139.52669 c 11.160478,0.25329 20.986044,6.72888 29.758922,13.12122 8.933744,6.50839 18.741318,12.50985 29.371928,15.61006 5.34846,1.55928 11.06981,2.27577 16.55445,1.02023 -3.77508,3.99027 -8.35343,6.65304 -13.69307,7.79992 -5.3647,1.15041 -11.02466,1.11054 -16.37701,-0.0907 -5.3414,-1.19733 -10.205504,-3.29213 -15.065723,-5.83883 -4.929011,-2.57598 -9.621309,-6.2043 -13.971411,-9.65553 -6.481233,-5.15161 -13.517739,-10.25242 -21.510625,-12.60757 -3.992386,-1.17581 -8.06203,-1.58115 -12.067116,-0.19191 -1.841147,0.64064 -3.702756,1.54481 -5.082822,2.9524 -0.636411,0.65087 -1.204384,1.50812 -1.635125,2.31528 -0.231422,0.41945 -0.763411,1.899 -0.773995,2.07998 -0.02893,-0.0614 0.01058,-0.66182 0.09384,-1.24813 0.09066,-0.71614 0.282222,-1.41429 0.513645,-2.09832 0.43815,-1.30211 1.089025,-2.49979 1.895827,-3.59587 1.609725,-2.18158 3.72992,-3.92148 5.990872,-5.33964 4.771673,-2.99544 10.404475,-4.35575 15.997414,-4.23263"
       style="fill:#000000;fill-opacity:1;fill-rule:nonzero;stroke:none;stroke-width:0.352778"
       id="path202"
       sodipodi:nodetypes="cccccccccccccccccc" />
    <path
       d="m 129.23212,151.49753 c -0.77047,0.79939 -4.93113,5.18407 -7.66586,8.08179 0.51012,-2.07998 2.4003,-9.67 2.44193,-9.8545 -0.16087,-0.0434 -0.32385,-0.0868 -0.48648,-0.12665 -0.27164,0.60431 -3.26884,7.34378 -4.12609,9.28653 l -0.34714,-10.37908 c -0.22083,-0.0289 -0.44485,-0.0579 -0.66745,-0.0797 l -2.03165,9.90883 -4.18712,-10.25949 -0.42898,0.0469 2.35868,11.83358 -9.68799,-10.35403 c -0.11218,0.0543 -0.20249,0.0797 -0.31467,0.13053 l 7.03086,10.96504 -10.63061,-5.26733 -0.17533,0.24236 0.0162,0.0145 -0.0307,0.004 -0.0632,0.0868 10.88355,7.95902 c 1.60267,0.82832 3.11291,1.53035 4.53107,2.04752 2.17982,0.8068 4.96006,1.69686 7.99712,2.35867 1.2499,0.26776 4.14761,0.60784 4.14761,0.60784 l 10.35368,-2.91218 0.33302,-0.49213 -10.99785,1.14335 12.56771,-7.34024 -0.1845,-0.24977 c -0.004,0 -2.55059,0.90805 -5.69419,2.12372 -2.77636,1.08162 -6.02333,2.30435 -8.36577,3.04236 l 9.43504,-8.97185 -0.23707,-0.16298 c -0.004,0.004 -9.77864,6.09247 -11.85157,7.41292 0.99837,-1.83444 6.42479,-10.34662 6.53521,-10.54911 0.0526,-0.10125 -0.31644,-0.23143 -0.45755,-0.29669"
       style="fill:#000000;fill-opacity:1;fill-rule:nonzero;stroke:none;stroke-width:0.352778"
       id="path234"
       sodipodi:nodetypes="ccccccccccccccccccccccccccccccccccc" />
    <path
       d="m 80.295915,165.7294 c -2.167114,2.22109 -5.851525,4.78261 -8.269816,6.00534 -2.995789,1.51235 -6.005336,2.87267 -10.551231,3.65019 -2.606322,0.44873 -5.927372,0.63323 -8.586258,0.3944 -5.151614,-0.46319 -10.777361,-2.51424 -14.460008,-7.31132 -2.047522,-2.67723 -3.107619,-6.10305 -2.890661,-9.52535 0.195439,-3.13302 2.628547,-6.0452 5.066594,-7.38011 -0.982133,1.41076 -1.189919,3.92889 -0.868186,5.56401 0.445206,2.24296 1.724025,4.42454 2.812697,5.54955 2.210506,2.28635 4.498623,3.88161 8.456436,5.08988 4.627034,1.41463 7.59707,1.64606 11.409892,1.30633 6.231466,-0.55386 8.640938,-1.42205 11.690702,-2.6229 1.307747,-0.52105 2.416528,-1.43616 3.460397,-2.04788 1.848556,0.94439 2.73297,1.32045 2.729442,1.32786"
       style="fill:#000000;fill-opacity:1;fill-rule:nonzero;stroke:none;stroke-width:0.352778"
       id="path238"
       sodipodi:nodetypes="cccccccccccccc" />
  </g>
</svg>
